<svg xmlns="http://www.w3.org/2000/svg" width="820" height="760" viewBox="0 0 820 760"><rect width="820" height="760" fill="#fff"/><g font-family="Arial" font-size="16" fill="#172033" text-anchor="middle"><circle cx="410" cy="45" r="16" fill="#172033"/><rect x="270" y="90" width="280" height="50" fill="#eef5ff" stroke="#174ea6"/><text x="410" y="121">Enter appointment request</text><rect x="270" y="175" width="280" height="50" fill="#eef5ff" stroke="#174ea6"/><text x="410" y="206">Validate administrative input</text><polygon points="410,260 490,315 410,370 330,315" fill="#fff8e6" stroke="#9a6700"/><text x="410" y="320">Valid?</text><rect x="270" y="405" width="280" height="50" fill="#eef5ff" stroke="#174ea6"/><text x="410" y="436">Check conflict and save pending</text><rect x="270" y="490" width="280" height="50" fill="#eef5ff" stroke="#174ea6"/><text x="410" y="521">Receptionist review</text><polygon points="410,575 505,630 410,685 315,630" fill="#fff8e6" stroke="#9a6700"/><text x="410" y="635">Confirm?</text><circle cx="410" cy="725" r="18" fill="#fff" stroke="#172033" stroke-width="4"/></g><g stroke="#555" marker-end="url(#arrow)"><defs><marker id="arrow" markerWidth="10" markerHeight="10" refX="8" refY="3" orient="auto"><path d="M0,0 L0,6 L9,3 z" fill="#555"/></marker></defs><line x1="410" y1="61" x2="410" y2="90"/><line x1="410" y1="140" x2="410" y2="175"/><line x1="410" y1="225" x2="410" y2="260"/><line x1="410" y1="370" x2="410" y2="405"/><line x1="410" y1="455" x2="410" y2="490"/><line x1="410" y1="540" x2="410" y2="575"/><line x1="410" y1="685" x2="410" y2="707"/></g></svg>