<svg xmlns="http://www.w3.org/2000/svg" width="940" height="560" viewBox="0 0 940 560" role="img" aria-label="Component diagram for generated clinic appointment system">
  <rect width="940" height="560" fill="#ffffff"/>
  <g font-family="Arial" fill="#17202a" text-anchor="middle">
    <rect x="40" y="70" width="250" height="210" rx="8" fill="#f4f7fb" stroke="#18646f" stroke-width="2"/>
    <text x="165" y="105" font-size="18" font-weight="700">Task 1 Generator</text>
    <rect x="70" y="130" width="190" height="36" rx="8" fill="#ffffff" stroke="#d9e2ec"/>
    <text x="165" y="153">Prompt Templates</text>
    <rect x="70" y="185" width="190" height="36" rx="8" fill="#ffffff" stroke="#d9e2ec"/>
    <text x="165" y="208">Structured Artefacts</text>
    <rect x="70" y="240" width="190" height="36" rx="8" fill="#ffffff" stroke="#d9e2ec"/>
    <text x="165" y="263">Optional DeepSeek Hook</text>
    <rect x="360" y="50" width="310" height="320" rx="8" fill="#f4f7fb" stroke="#18646f" stroke-width="2"/>
    <text x="515" y="85" font-size="18" font-weight="700">Generated Flask App</text>
    <rect x="395" y="115" width="240" height="36" rx="8" fill="#ffffff" stroke="#d9e2ec"/>
    <text x="515" y="138">Login and Role Routing</text>
    <rect x="395" y="170" width="240" height="36" rx="8" fill="#ffffff" stroke="#d9e2ec"/>
    <text x="515" y="193">Patient Dashboard</text>
    <rect x="395" y="225" width="240" height="36" rx="8" fill="#ffffff" stroke="#d9e2ec"/>
    <text x="515" y="248">Staff Dashboard</text>
    <rect x="395" y="280" width="240" height="36" rx="8" fill="#ffffff" stroke="#d9e2ec"/>
    <text x="515" y="303">REST API and Safety Validation</text>
    <rect x="720" y="100" width="170" height="70" rx="8" fill="#fff2dc" stroke="#b4661f"/>
    <text x="805" y="140">OpenWeather API</text>
    <rect x="720" y="230" width="170" height="70" rx="8" fill="#e8f5ef" stroke="#17623f"/>
    <text x="805" y="270">JSON Store</text>
    <rect x="360" y="430" width="180" height="70" rx="8" fill="#ffffff" stroke="#5f6c7b"/>
    <text x="450" y="470">GitHub Actions</text>
    <rect x="600" y="430" width="180" height="70" rx="8" fill="#ffffff" stroke="#5f6c7b"/>
    <text x="690" y="470">Render</text>
  </g>
  <g stroke="#18646f" stroke-width="2" marker-end="url(#arrow)">
    <defs>
      <marker id="arrow" markerWidth="8" markerHeight="8" refX="7" refY="3" orient="auto">
        <path d="M0,0 L8,3 L0,6 Z" fill="#18646f"/>
      </marker>
    </defs>
    <line x1="290" y1="175" x2="360" y2="175"/>
    <line x1="635" y1="298" x2="720" y2="265"/>
    <line x1="635" y1="298" x2="720" y2="135"/>
    <line x1="515" y1="370" x2="450" y2="430"/>
    <line x1="560" y1="370" x2="690" y2="430"/>
  </g>
</svg>
