<svg xmlns="http://www.w3.org/2000/svg" width="1000" height="560" viewBox="0 0 1000 560"><rect width="1000" height="560" fill="#fff"/><g font-family="Arial" font-size="16"><text x="80" y="40">Patient</text><text x="285" y="40">Website</text><text x="500" y="40">Flask API</text><text x="700" y="40">Store</text><text x="835" y="40">Receptionist</text></g><g stroke="#b8c4d6"><line x1="105" y1="60" x2="105" y2="520"/><line x1="315" y1="60" x2="315" y2="520"/><line x1="535" y1="60" x2="535" y2="520"/><line x1="725" y1="60" x2="725" y2="520"/><line x1="880" y1="60" x2="880" y2="520"/></g><g font-family="Arial" font-size="14" fill="#172033" stroke="#174ea6"><line x1="105" y1="100" x2="315" y2="100"/><text x="150" y="92">fill form</text><line x1="315" y1="155" x2="535" y2="155"/><text x="350" y="147">POST /appointments</text><line x1="535" y1="210" x2="725" y2="210"/><text x="560" y="202">check conflict</text><line x1="725" y1="265" x2="535" y2="265"/><text x="560" y="257">slot result</text><line x1="535" y1="320" x2="315" y2="320"/><text x="350" y="312">pending + flag</text><line x1="880" y1="375" x2="315" y2="375"/><text x="520" y="367">review request</text><line x1="315" y1="430" x2="535" y2="430"/><text x="345" y="422">PATCH review</text><line x1="535" y1="485" x2="315" y2="485"/><text x="345" y="477">summary</text></g></svg>