<svg xmlns="http://www.w3.org/2000/svg" width="900" height="520" viewBox="0 0 900 520"><rect width="900" height="520" fill="#fff"/><rect x="250" y="40" width="560" height="420" fill="#f8fbff" stroke="#1f6feb"/><text x="390" y="75" font-family="Arial" font-size="20" fill="#172033">Clinic Appointment System</text><circle cx="95" cy="150" r="25" fill="#e7f3ff" stroke="#174ea6"/><line x1="95" y1="175" x2="95" y2="250" stroke="#174ea6"/><line x1="55" y1="205" x2="135" y2="205" stroke="#174ea6"/><line x1="95" y1="250" x2="60" y2="315" stroke="#174ea6"/><line x1="95" y1="250" x2="130" y2="315" stroke="#174ea6"/><text x="60" y="350" font-family="Arial" font-size="18">Patient</text><circle cx="95" cy="395" r="25" fill="#e7f3ff" stroke="#174ea6"/><line x1="95" y1="420" x2="95" y2="485" stroke="#174ea6"/><line x1="55" y1="450" x2="135" y2="450" stroke="#174ea6"/><text x="38" y="510" font-family="Arial" font-size="18">Receptionist</text><g font-family="Arial" font-size="16" fill="#172033"><ellipse cx="480" cy="145" rx="130" ry="35" fill="#fff" stroke="#7396c8"/><text x="380" y="150">Submit request</text><ellipse cx="560" cy="230" rx="140" ry="35" fill="#fff" stroke="#7396c8"/><text x="455" y="235">Flag slot conflict</text><ellipse cx="550" cy="315" rx="150" ry="35" fill="#fff" stroke="#7396c8"/><text x="435" y="320">Review pending request</text><ellipse cx="575" cy="395" rx="165" ry="35" fill="#fff" stroke="#7396c8"/><text x="450" y="400">Non-diagnostic summary</text></g><line x1="135" y1="205" x2="350" y2="145" stroke="#555"/><line x1="135" y1="450" x2="405" y2="315" stroke="#555"/><line x1="135" y1="450" x2="410" y2="395" stroke="#555"/></svg>